<svg width="128" height="128" viewBox="0 0 128 128" xmlns="http://www.w3.org/2000/svg">
  <defs>
    <linearGradient id="bg" x1="0" y1="0" x2="1" y2="1">
      <stop offset="0%" stop-color="#6366F1"/>
      <stop offset="100%" stop-color="#0EA5E9"/>
    </linearGradient>
  </defs>

  <rect width="128" height="128" rx="30" fill="url(#bg)"/>

  <!-- Graduation cap -->
  <path d="M28 43L64 26L100 43L64 61L28 43Z" fill="white"/>
  <path d="M42 55V74C42 83 52 89 64 89C76 89 86 83 86 74V55L64 66L42 55Z" fill="white" opacity="0.95"/>

  <!-- Chat bubble -->
  <path d="M79 66C79 57 86 50 96 50C106 50 113 57 113 66C113 75 106 82 96 82H90L82 89L84 79C81 76 79 72 79 66Z" fill="#22C55E"/>

  <!-- Check mark -->
  <path d="M88 66L94 72L105 59" fill="none" stroke="white" stroke-width="5" stroke-linecap="round" stroke-linejoin="round"/>

  <text x="64" y="113" text-anchor="middle" font-family="Arial, sans-serif" font-size="18" font-weight="900" fill="white">
    CM
  </text>
</svg>